<svg id="Capa_1" data-name="Capa 1" xmlns="http://www.w3.org/2000/svg" viewBox="0 0 247.25 50"><defs><style>.cls-1{fill:#fd5151;}</style></defs><title>Mesa de trabajo 1</title><path class="cls-1" d="M-.21,1.12A.85.85,0,0,1,.65.26H34.33a.86.86,0,0,1,.87.86h0a.86.86,0,0,1-.87.86H.65a.85.85,0,0,1-.86-.86Z"/><path class="cls-1" d="M.65.26a.85.85,0,0,1,.86.86V34.8a.86.86,0,0,1-.86.87h0a.86.86,0,0,1-.86-.87V1.12A.85.85,0,0,1,.65.26Z"/><path class="cls-1" d="M247.41,49.08a.87.87,0,0,1-.87.86H212.86a.86.86,0,0,1-.86-.86h0a.86.86,0,0,1,.86-.87h33.68a.87.87,0,0,1,.87.87Z"/><path class="cls-1" d="M246.54,49.94a.87.87,0,0,1-.86-.86V15.39a.87.87,0,0,1,.86-.86h0a.87.87,0,0,1,.87.86V49.08a.87.87,0,0,1-.87.86Z"/><path class="cls-1" d="M23.87,33.92h4a3.91,3.91,0,0,1,.68-.06h.68a.59.59,0,0,1,.68.56v2.16c0,.41,0,.82,0,1.21s0,.81,0,1.22a.45.45,0,0,1-.51.51h-.87a6.62,6.62,0,0,0-.88.06H24.38a9.85,9.85,0,0,1-1.64.08,14.73,14.73,0,0,0-1.64,0H17.87a4.34,4.34,0,0,1-1.13.08l-1.14,0c-.41,0-.81,0-1.18,0H13.23a1.82,1.82,0,0,1-.46.06h-.51c-.11,0-.24,0-.39-.17s-.22-.37-.31-.54a1.28,1.28,0,0,1-.14-.65V37a17.08,17.08,0,0,1,0-1.76,17,17,0,0,0,0-1.76q0-1.31,0-2.58c0-.86,0-1.72,0-2.59V23c0-.53,0-1.07,0-1.62s0-1.11,0-1.68q0-.45,0-1c0-.34,0-.7-.08-1.08s0-.63,0-1,0-.73,0-1.06V12.79a1.16,1.16,0,0,1,.28-.61,2.22,2.22,0,0,1,1-.45.5.5,0,0,1,.34,0,1.08,1.08,0,0,0,.68.11,3.82,3.82,0,0,1,.68-.06H27.49a10.56,10.56,0,0,0,1.13,0H29c.34.07.51.24.51.5v4.21a3.84,3.84,0,0,1,0,.5.44.44,0,0,1-.31.34,1.45,1.45,0,0,1-.85.33,1.36,1.36,0,0,0-.45,0,3.39,3.39,0,0,1-.45,0H24c-.53,0-1.06,0-1.58,0s-1.06,0-1.59,0H19.28a4.25,4.25,0,0,1-.85.11.78.78,0,0,0-.08.43,3,3,0,0,1,0,.43V20.3A11.08,11.08,0,0,1,18.26,22a3.32,3.32,0,0,0,.06.75s.06,0,.17.11,0,.06.11.06c.49,0,1,0,1.48,0s1,0,1.52.08h1.76c.57,0,1.17,0,1.81.06.38,0,.76.06,1.16.08a7.43,7.43,0,0,0,1.16,0c.57,0,.85.19.85.68a8.72,8.72,0,0,0,.06,1,3.19,3.19,0,0,1-.06,1,3.67,3.67,0,0,0-.11.94v1.16a.79.79,0,0,1-.8.84H23.59q-1.08,0-2.16.06-.73.06-1.47.06H18.49c-.15,0-.23.07-.23.22a9.32,9.32,0,0,1-.05,1.08,5.32,5.32,0,0,0,0,1.13,2.62,2.62,0,0,1,0,.79,5.77,5.77,0,0,0-.06.85v.74a.21.21,0,0,0,.23.23h5.49Z"/><path class="cls-1" d="M36.37,39.73l-1.27,0-1.24,0-.43,0-.44,0c-.21,0-.31-.08-.31-.24a1.83,1.83,0,0,1-.07-.45V35.42c0-.4,0-.78,0-1.15s0-.75,0-1.15V22.86c0-.19.08-.28.24-.28l.19,0,.2,0h3a1.24,1.24,0,0,1,.33,0q.28,0,.21.21c0,.27,0,.55,0,.81s0,.53,0,.79V29c0,.61,0,1.21,0,1.81v4.77c0,.26,0,.4,0,.42a1.84,1.84,0,0,0,.47.07l1.88,0h3.27l.11,0,.1,0,.26.1s0,.12,0,.28v3a.44.44,0,0,1-.34.28l-.21,0-.21,0c-.4,0-.79,0-1.18,0a7.88,7.88,0,0,0-1.19,0,5.75,5.75,0,0,1-.83,0,3.93,3.93,0,0,0-.84,0,1.28,1.28,0,0,1-.55,0,3.64,3.64,0,0,0-.56-.05Z"/><path class="cls-1" d="M57.46,11.67h2.69c.88,0,1.78,0,2.69.06.3,0,.57,0,.82,0s.5,0,.76.08a13,13,0,0,0,1.3.28,7.43,7.43,0,0,1,1.42.4A5.86,5.86,0,0,1,70,14.61c.3.42.59.82.87,1.19a5.23,5.23,0,0,1,.71,1.3,4.37,4.37,0,0,0,.28.8,3.63,3.63,0,0,1,.29.79c.11.64.19,1.28.25,1.92a9.38,9.38,0,0,1,0,2,4,4,0,0,0-.08.46,3.58,3.58,0,0,1-.09.45c-.15.42-.3.8-.45,1.16s-.32.75-.51,1.16a4.7,4.7,0,0,1-.54.85c-.21.27-.42.53-.65.79a9.56,9.56,0,0,1-1.3,1.11,16.9,16.9,0,0,1-1.47.93,4.31,4.31,0,0,1-2.21.62h-.17a3.53,3.53,0,0,1-1.36.2l-1.36,0c-.6,0-1.21,0-1.84-.05s-1.25-.06-1.89-.06h-.23a.46.46,0,0,0-.22.06l-.06.05v.06c0,.08,0,.13,0,.17a.37.37,0,0,1,0,.17,8.91,8.91,0,0,0,0,1.27,6,6,0,0,1-.08,1.28,3.2,3.2,0,0,1,.08.93q0,.48,0,.93v1.67a5.19,5.19,0,0,0,.06.77v.9a4,4,0,0,1-.11.91.51.51,0,0,1-.51.45l-1.71,0q-.87,0-1.71.09h-1a7.37,7.37,0,0,1-1-.06.7.7,0,0,1-.51-.17c-.07,0-.11-.06-.11-.17a.94.94,0,0,0,.06-.51,2,2,0,0,1-.06-.51V26.78q0-2,0-4t0-4V16.71c0-.38-.06-.75-.08-1.11a7.71,7.71,0,0,1,0-1.16,4.29,4.29,0,0,0,0-1,2.51,2.51,0,0,1,0-1c.07-.38.24-.57.5-.57a2.61,2.61,0,0,1,.53-.06h5.25ZM58,21.12v3.12c0,.19.07.28.22.28H62a3.89,3.89,0,0,0,.85-.11A2.77,2.77,0,0,0,63.91,24a5.72,5.72,0,0,0,.85-.71,1.7,1.7,0,0,0,.37-.7c.06-.25.12-.5.2-.77a3.62,3.62,0,0,0-.23-2.66,3.8,3.8,0,0,0-.76-1,2.31,2.31,0,0,0-1.05-.48h-5c-.19,0-.28.08-.28.23Z"/><path class="cls-1" d="M81.89,36.18h2.43a3,3,0,0,1,.42,0h.42c.25,0,.39.11.41.35v1.32c0,.25,0,.5,0,.75s0,.49,0,.75a.28.28,0,0,1-.31.31h-.54l-.54,0h-2a5.6,5.6,0,0,1-1,.06,8.44,8.44,0,0,0-1,0h-2a2.39,2.39,0,0,1-.7.05h-.7l-.73,0h-.73a.86.86,0,0,1-.28,0h-.31c-.07,0-.15,0-.24-.11a2.79,2.79,0,0,1-.19-.33.79.79,0,0,1-.09-.4v-.94c0-.35,0-.71,0-1.08a9.55,9.55,0,0,0,0-1.08c0-.54,0-1.07,0-1.59s0-1.05,0-1.59V29.48c0-.33,0-.66,0-1s0-.68,0-1c0-.18,0-.38,0-.59s0-.43-.06-.66,0-.39,0-.62,0-.45,0-.66V23.2a.79.79,0,0,1,.17-.38,1.61,1.61,0,0,1,.63-.28.37.37,0,0,1,.21,0,.63.63,0,0,0,.42.07,2.83,2.83,0,0,1,.41,0h8a5.48,5.48,0,0,0,.7,0H85c.21.05.31.15.31.31v2.59a2.85,2.85,0,0,1,0,.31.24.24,0,0,1-.19.2.87.87,0,0,1-.52.21.88.88,0,0,0-.28,0,1.27,1.27,0,0,1-.28,0H82l-1,0-1,0h-.94a3.86,3.86,0,0,1-.53.07.5.5,0,0,0-.05.26,2.11,2.11,0,0,1,0,.26v1a6.63,6.63,0,0,1-.07,1,1.66,1.66,0,0,0,0,.46s0,0,.1.07,0,0,.07,0c.3,0,.6,0,.9,0s.62,0,.94,0h1.08l1.12,0c.23,0,.47,0,.71.05a4.19,4.19,0,0,0,.71,0c.35,0,.52.11.52.41s0,.42,0,.63a1.91,1.91,0,0,1,0,.63,2.62,2.62,0,0,0-.07.57v.71a.49.49,0,0,1-.48.53H81.71l-1.32,0c-.3,0-.6,0-.91,0h-.9a.12.12,0,0,0-.14.14q0,.35,0,.66a2.65,2.65,0,0,0,0,.69,2,2,0,0,1,0,.49,2.89,2.89,0,0,0,0,.52V36a.12.12,0,0,0,.14.14h3.38Z"/><path class="cls-1" d="M87.73,27.56V23c0-.33.15-.49.45-.49a4.54,4.54,0,0,1,.73,0l.73,0,.72,0a3.35,3.35,0,0,1,.71.05l.7,0a4.09,4.09,0,0,0,.69,0l1.5,0,1.53,0a1.69,1.69,0,0,1,.33,0l.33.07a3.08,3.08,0,0,1,.73.11,4.79,4.79,0,0,1,1.36.62,4.19,4.19,0,0,1,.54.4c.17.16.34.31.5.48a4.26,4.26,0,0,1,.58.76,6.52,6.52,0,0,1,.4.84,7.77,7.77,0,0,1,.42,2.06,9.79,9.79,0,0,1-.11,1.81,5.52,5.52,0,0,1-.5,1.36,7.24,7.24,0,0,1-.82,1.22,5.46,5.46,0,0,1-.64.56c-.22.16-.46.32-.72.49a3.16,3.16,0,0,1-.9.38c-.1,0-.13.09-.11.21A15.4,15.4,0,0,0,98,36.07c.18.26.37.52.55.79s.39.52.6.78.27.27.41.4a4.89,4.89,0,0,1,.39.4,6.25,6.25,0,0,1,.45.44l.42.47q.27.34-.18.45a1.25,1.25,0,0,1-.52.07H96.26a1,1,0,0,1-.73-.31c-.42-.49-.83-1-1.22-1.5a11.06,11.06,0,0,1-1-1.63l-.19-.35a2.25,2.25,0,0,0-.22-.35,8.16,8.16,0,0,1-.63-1.5c0-.09-.1-.12-.24-.1a.16.16,0,0,0-.11.17v2.13c0,.37,0,.73,0,1.09s0,.74,0,1.13v.87a.29.29,0,0,1-.28.32h-.24a.9.9,0,0,1-.24,0c-.4,0-.8,0-1.22,0s-.82,0-1.22,0h-.49c-.25,0-.38-.11-.38-.35v-.9c0-.33,0-.64,0-.93s0-.58,0-.89a2.53,2.53,0,0,1,0-.29,1.32,1.32,0,0,0,0-.3V27.56Zm5.78-1.36H92.05c-.12,0-.18,0-.18.14v.71c0,.22,0,.46,0,.71s0,.61,0,.91,0,.61,0,.94v.66c0,.16.08.23.25.21h1.08a4.48,4.48,0,0,1,.73,0l.73,0A1.77,1.77,0,0,0,95.73,30a1.62,1.62,0,0,0,.63-1,.83.83,0,0,0,.07-.34,1.34,1.34,0,0,1,0-.35,2.24,2.24,0,0,0-.74-1.74,1.21,1.21,0,0,0-1-.38Z"/><path class="cls-1" d="M115.85,28.63v5.08a7.88,7.88,0,0,1,0,.86,4.26,4.26,0,0,1-.14.78,6.73,6.73,0,0,1-1.14,2.19A7.31,7.31,0,0,1,112.87,39a7.48,7.48,0,0,1-1,.49c-.35.14-.72.27-1.09.38a1.12,1.12,0,0,1-.38.09L110,40c-.32,0-.64,0-.94,0a4.87,4.87,0,0,1-.93,0,.18.18,0,0,0-.14,0,2.67,2.67,0,0,1-.8-.12c-.25-.08-.52-.16-.8-.23a5.37,5.37,0,0,1-.91-.41,7.31,7.31,0,0,1-.81-.56,10.67,10.67,0,0,1-1.07-1.17,4.9,4.9,0,0,1-.75-1.37,4,4,0,0,1-.27-.64c0-.2-.11-.42-.15-.65a8.4,8.4,0,0,1-.11-1.32c0-.6,0-1.2,0-1.79s0-1.19.06-1.8c0-.25,0-.49,0-.71a4.3,4.3,0,0,1,0-.71,2,2,0,0,0,0-.49c0-.14,0-.3,0-.49s0-.37,0-.57,0-.4,0-.61a7.54,7.54,0,0,1,0-.82c0-.26,0-.54,0-.82a7.36,7.36,0,0,1,0-.81c0-.27,0-.54,0-.82s.05-.34.14-.38a.53.53,0,0,1,.25-.07h.87a6.14,6.14,0,0,1,.86,0l.86,0a1.15,1.15,0,0,1,.39-.07l.18,0a.18.18,0,0,1,.14,0q.42,0,.42.45v2.37c0,.44,0,.88,0,1.32s0,.88,0,1.32,0,1.12,0,1.69,0,1.14,0,1.72c0,.33,0,.65,0,1s0,.65,0,1v.14a1.67,1.67,0,0,0,.08.87,5.56,5.56,0,0,0,.4.76.92.92,0,0,0,.35.32,3.81,3.81,0,0,0,.76.45,1.07,1.07,0,0,0,.65.14,1.91,1.91,0,0,1,.52.07h0l.76-.21a1.47,1.47,0,0,0,.65-.38c.1-.12.18-.22.25-.32l.27-.31a1.52,1.52,0,0,0,.37-.68q.07-.36.12-.78c0-.53,0-1.07,0-1.6s0-1.07,0-1.6V27.1c0-.18,0-.38,0-.57a5.72,5.72,0,0,1,0-.58.25.25,0,0,1,0-.21,6.15,6.15,0,0,0,0-.74c0-.25,0-.5-.06-.75V23a.3.3,0,0,1,.11-.27c.09-.1.16-.14.21-.14a1,1,0,0,1,.45-.11,2.16,2.16,0,0,0,.5,0,9.92,9.92,0,0,1,.87.05.77.77,0,0,0,.37,0,3.64,3.64,0,0,1,.66,0,4.68,4.68,0,0,0,.66,0h.17s.07.06.14.17a.19.19,0,0,0,0,.07.25.25,0,0,1,0,.1c0,.26,0,.53,0,.81s0,.54,0,.8c0,.67,0,1.32,0,2s0,1.27,0,1.9Zm-5.53-12.21h.78l.85.06h.91a.38.38,0,0,1,.34.14c0,.14,0,.23-.1.27a1.16,1.16,0,0,1-.14.23l-.14.19c-.12.12-.22.24-.33.37a2.82,2.82,0,0,1-.33.36c-.32.42-.66.83-1,1.22s-.68.81-1,1.25a.6.6,0,0,1-.45.18H109l-.66,0-.25,0-.24,0q-.45,0-.21-.45l1.78-3.45a1.41,1.41,0,0,1,.36-.44A1.52,1.52,0,0,1,110.32,16.42Z"/><path class="cls-1" d="M131,11.73h5.49a3.82,3.82,0,0,0,.68,0,2.08,2.08,0,0,1,.68.12l1.35.22a6.2,6.2,0,0,1,1.36.4,6.45,6.45,0,0,1,3.06,2.15q.51.74,1,1.5a6.57,6.57,0,0,1,.79,1.67,4.22,4.22,0,0,1,.23.93,5.59,5.59,0,0,0,.17.94,6,6,0,0,1,.11,1.1v1.11a8.57,8.57,0,0,1-.68,2.88,8.14,8.14,0,0,1-1.1,2,9.74,9.74,0,0,1-1.56,1.59,10.19,10.19,0,0,1-1.75,1.13,6.81,6.81,0,0,1-1.93.62,8.75,8.75,0,0,1-1.61.2l-1.61,0c-.61,0-1.22-.07-1.84-.09l-1.9,0c-.08,0-.12,0-.14,0a.22.22,0,0,1-.14,0,.26.26,0,0,0-.23.28v1.87c0,.6-.06,1.22-.06,1.87v1.92c0,.23,0,.45,0,.68s0,.47,0,.73v.91a4.11,4.11,0,0,1-.11.91c0,.26-.17.39-.4.39l-1.65.09c-.54,0-1.1,0-1.66,0h-2.13a.87.87,0,0,1-.39-.06c-.27,0-.36-.13-.28-.4v-.62a1.13,1.13,0,0,0,0-.25,1.58,1.58,0,0,1,0-.32V23.73q0-1.82-.06-3.63V14.67c0-.3,0-.58,0-.85V13a.42.42,0,0,1,0-.28,1.67,1.67,0,0,0,0-.28c0-.27.22-.46.56-.57l.28,0a1.87,1.87,0,0,1,.34,0H131Zm.45,9.39v3c0,.19,0,.31.06.34a.75.75,0,0,0,.34.12h1.89c.59,0,1.18,0,1.79-.06a4.78,4.78,0,0,0,1.52-.28c.08,0,.23-.14.46-.29a4.12,4.12,0,0,0,.87-.9,2.73,2.73,0,0,0,.48-1.25v-.17a3.56,3.56,0,0,0,.09-1.38,3.18,3.18,0,0,0-.48-1.33,2.45,2.45,0,0,0-.77-.91,1.92,1.92,0,0,0-1.16-.34h-4.92c-.11,0-.17.08-.17.23v3.22Z"/><path class="cls-1" d="M147.69,31V27.59c0-.35,0-.69,0-1s0-.67,0-1V23c0-.35.15-.52.45-.52h2.18c.23,0,.47,0,.7,0s.46,0,.69.05.44,0,.68,0c.51,0,1,0,1.53,0s1,0,1.49,0h.4a1.16,1.16,0,0,1,.37.07,1.18,1.18,0,0,0,.37.09l.36.05a3,3,0,0,1,1.32.63,8.82,8.82,0,0,1,1.08.94,3.94,3.94,0,0,1,1,1.56,6.05,6.05,0,0,1,.41,2.2c0,.25,0,.52,0,.8a4.31,4.31,0,0,1-.13.8,4.72,4.72,0,0,1-1.32,2.57,3.09,3.09,0,0,1-.61.59c-.22.17-.46.33-.71.49a3.36,3.36,0,0,1-.38.19,4.09,4.09,0,0,1-.46.16c-.13,0-.2.08-.2.1a1.07,1.07,0,0,0,.07.25l.33.67a6.59,6.59,0,0,0,.33.65,10.67,10.67,0,0,0,1.08,1.6,18.75,18.75,0,0,0,1.28,1.43c.14.13.28.28.42.43l.42.44q.32.38-.18.48a1,1,0,0,1-.26,0l-.26,0h-2c-.32,0-.63,0-.92,0s-.6,0-.92,0a.84.84,0,0,1-.7-.31c-.14-.19-.28-.35-.41-.51a3.33,3.33,0,0,1-.39-.5c-.16-.19-.32-.37-.47-.56a4.07,4.07,0,0,1-.4-.59c-.23-.35-.45-.7-.66-1.06s-.4-.72-.59-1.1a9.37,9.37,0,0,1-.38-1,.17.17,0,0,0-.25-.11l-.07.07v.21c0,.39,0,.78,0,1.16v1.17c0,.46,0,.92-.05,1.36s0,.89,0,1.35v.11a.22.22,0,0,1-.25.24l-.26,0-.27,0a5.13,5.13,0,0,0-1,0c-.32,0-.64,0-1,0h-.91a.36.36,0,0,1-.18,0,.32.32,0,0,1-.28-.28,1,1,0,0,1-.05-.38c0-.14,0-.28,0-.42,0-.33,0-.66,0-1v-1c0-.56,0-1.11,0-1.64s0-1.07,0-1.6,0-.8,0-1.22,0-.82,0-1.22Zm4.11-2.75h0v1.95c0,.17.06.22.2.18l.37,0,.36,0h1.85a1.84,1.84,0,0,0,1.18-.45,1.58,1.58,0,0,0,.63-.94,2.8,2.8,0,0,0,0-.4,1.5,1.5,0,0,1,0-.37,2,2,0,0,0-.66-1.67,1.44,1.44,0,0,0-1.05-.45,6.26,6.26,0,0,1-.75,0l-.78,0H152c-.11,0-.17.07-.17.21,0,.33,0,.66-.05,1S151.8,28,151.8,28.28Z"/><path class="cls-1" d="M162.73,31.69V27.41c0-.58,0-1.16,0-1.74,0-.25,0-.51,0-.76a6.6,6.6,0,0,0,0-.77V23.2a1.53,1.53,0,0,1,0-.38q0-.24.27-.24l.4,0,.4,0h2.83c.18.05.27.14.27.28v2.61a4.7,4.7,0,0,1,0,.54,3.33,3.33,0,0,0,0,.54c0,.25,0,.51,0,.76a7.42,7.42,0,0,0,0,.81v1.18a3,3,0,0,1,0,.42,1.88,1.88,0,0,0,0,.41,3.31,3.31,0,0,1,0,.44,2,2,0,0,0,0,.43v8.6a.34.34,0,0,1-.38.35H166a5.09,5.09,0,0,1-.54,0h-1.12l-1.15,0H163a.32.32,0,0,1-.2-.21v-1c0-.51,0-1,0-1.51V31.69Z"/><path class="cls-1" d="M187.61,39.73l-.89,0c-.29,0-.59,0-.89,0h-.1c-.19,0-.3-.09-.33-.14a.77.77,0,0,1-.12-.27,1.85,1.85,0,0,1-.07-.6c-.05-.32-.09-.63-.11-.92s-.06-.6-.1-.92-.05-.46-.07-.68-.06-.43-.11-.64,0-.46-.07-.66,0-.44-.07-.7a2.72,2.72,0,0,1-.08-.47c0-.15,0-.31-.06-.47s-.08-.6-.1-.89-.06-.57-.1-.85a.61.61,0,0,1,0-.24l-.05-.11-.05-.1c0,.05,0,.1-.11.17a3,3,0,0,0-.28.63c-.25.46-.51.93-.76,1.41l-.77,1.41c-.16.35-.32.71-.47,1.08s-.32.74-.5,1.11a1.83,1.83,0,0,0-.11.26,2.08,2.08,0,0,1-.1.3.49.49,0,0,1-.52.38l-.47,0h-.44c-.28,0-.56,0-.85,0a7.94,7.94,0,0,1-.85,0,.46.46,0,0,1-.45-.34c-.12-.21-.23-.42-.34-.63s-.21-.42-.33-.63c-.23-.44-.45-.87-.66-1.3s-.41-.87-.62-1.31a9.31,9.31,0,0,1-.44-.9l-.4-.94a1.36,1.36,0,0,0-.09-.23.94.94,0,0,0-.12-.22l-.12-.33a.58.58,0,0,0-.23-.3c0,.14,0,.26,0,.37s0,.21-.05.33q-.07.42-.12.87l-.12.9c-.05.35-.1.7-.14,1.06s-.1.74-.14,1.13-.12,1.07-.21,1.6a2.34,2.34,0,0,0,0,.39,1,1,0,0,1-.07.38l-.06.77c0,.25-.06.51-.11.76a1.19,1.19,0,0,1,0,.31.53.53,0,0,1-.46.32h-2.81l-.32,0-.31,0c-.21,0-.31-.15-.31-.38s0-.32.05-.47,0-.32,0-.5c.05-.35.09-.69.12-1l.12-1c.1-.68.18-1.34.25-2s.16-1.28.28-1.91c0-.32.07-.64.08-.94a6.86,6.86,0,0,1,.09-.9c0-.4.1-.79.16-1.19s.11-.79.15-1.18.05-.49.07-.71,0-.46.07-.72l.21-1.56c0-.26,0-.51.07-.75s.06-.49.1-.75a4.07,4.07,0,0,1,0-.52c0-.16.05-.33.07-.49a.22.22,0,0,1,.24-.21l.89-.05.85,0h.42a2.42,2.42,0,0,0,.45,0h.28a.51.51,0,0,1,.52.35L175,23.9q.27.55.54,1.08c.19.39.37.78.54,1.15s.35.75.54,1.14.46,1,.68,1.47.43,1,.64,1.46.37.73.54,1.09.36.74.54,1.13a.21.21,0,0,1,.07.14.17.17,0,0,0,.07.14l0,0,.06-.07a2.64,2.64,0,0,0,.18-.38,2.3,2.3,0,0,1,.17-.39,7.59,7.59,0,0,0,.49-1,8.27,8.27,0,0,1,.49-1c.25-.6.52-1.2.8-1.79s.57-1.19.87-1.79q.21-.46.42-.87l.41-.87a3.22,3.22,0,0,1,.25-.53,3.56,3.56,0,0,0,.24-.52,3.65,3.65,0,0,0,.17-.49.88.88,0,0,1,.63-.62.41.41,0,0,0,.21,0l.64,0a4.19,4.19,0,0,1,.61,0,1.27,1.27,0,0,0,.33,0,1.83,1.83,0,0,1,.33,0,1.37,1.37,0,0,0,.35,0,1,1,0,0,1,.35,0,.44.44,0,0,1,.42.42,1.44,1.44,0,0,0,0,.35c.05.32.09.65.14,1s.09.65.14,1,.05.6.07.9.06.62.1.94.13.78.18,1.15.09.75.14,1.15.08.55.1.82.05.54.07.81.09.56.12.82l.12.78a2.12,2.12,0,0,1,0,.44,2.9,2.9,0,0,0,0,.43c.05.4.1.79.14,1.17s.1.77.14,1.17.1.76.16,1.11.11.72.16,1.11c0,.24,0,.46,0,.68a4.1,4.1,0,0,0,.09.68,1.19,1.19,0,0,1,0,.14.28.28,0,0,1-.31.28l-.42,0h-1.25Z"/><path class="cls-1" d="M191.57,27.45a3.07,3.07,0,0,1,0-.61c0-.22,0-.44,0-.64V23.8c0-.19,0-.4,0-.6a.61.61,0,0,1,.21-.42,3.32,3.32,0,0,1,.41-.22.81.81,0,0,1,.49,0,.87.87,0,0,0,.42.05h9.22a.39.39,0,0,1,.38.41v2.59a.54.54,0,0,1-.17.41.69.69,0,0,1-.49.17l-.71,0-.71,0h-4.32l-.19.05-.19.05v.38c0,.37,0,.74,0,1.1v1.44a.17.17,0,0,0,.18.14,12.34,12.34,0,0,0,1.49,0q.73,0,1.5,0a2.55,2.55,0,0,1,.38,0h.46a4.83,4.83,0,0,0,.76,0,5,5,0,0,1,.77,0h.17a.72.72,0,0,1,.35.1.63.63,0,0,1,.1.35,5.14,5.14,0,0,1,0,.71,5.2,5.2,0,0,1,0,.72,2.69,2.69,0,0,0,0,.57,3.54,3.54,0,0,1,0,.57v.11c0,.35-.19.52-.56.52s-.5,0-.73,0h-2.78l-.91,0a6.91,6.91,0,0,0-.9,0H196c-.09,0-.14,0-.14.1s0,.22,0,.33,0,.21,0,.32v2.1c0,.12.06.17.18.17h6.68a.38.38,0,0,1,.35.28.62.62,0,0,0,0,.18,1.48,1.48,0,0,1,0,.21q0,.6,0,1.32v1.32c0,.21-.1.31-.28.31h-2.18c-.36,0-.72,0-1.09,0a2.24,2.24,0,0,1-.58,0l-.57,0q-.66,0-1.29,0c-.42,0-.83,0-1.25,0a10.23,10.23,0,0,1-1.46.05h-1.71a.9.9,0,0,1-.24,0,.31.31,0,0,1-.26,0l-.16-.14a.92.92,0,0,1-.21-.63v-.52a4.81,4.81,0,0,0,0-.52c0-.74,0-1.47,0-2.19s0-1.44-.07-2.16V27.45Z"/><path class="cls-1" d="M205.11,31V27.59c0-.35,0-.69,0-1s0-.67,0-1V23c0-.35.15-.52.45-.52h2.18l.7,0c.23,0,.46,0,.68.05s.45,0,.68,0c.51,0,1,0,1.53,0s1,0,1.5,0h.4a1.16,1.16,0,0,1,.37.07,1.06,1.06,0,0,0,.36.09l.37.05a3.09,3.09,0,0,1,1.32.63,8.82,8.82,0,0,1,1.08.94,3.81,3.81,0,0,1,1,1.56,5.86,5.86,0,0,1,.42,2.2c0,.25,0,.52,0,.8a3.6,3.6,0,0,1-.12.8,4.72,4.72,0,0,1-1.32,2.57,3.38,3.38,0,0,1-.61.59c-.22.17-.46.33-.71.49a3.54,3.54,0,0,1-.39.19,4.72,4.72,0,0,1-.45.16c-.14,0-.21.08-.21.1a1.07,1.07,0,0,0,.07.25c.12.23.23.45.33.67s.22.44.33.65a12.43,12.43,0,0,0,1.08,1.6,18.92,18.92,0,0,0,1.29,1.43c.14.13.28.28.42.43s.27.3.41.44.15.41-.17.48a1.09,1.09,0,0,1-.26,0l-.26,0h-2c-.33,0-.63,0-.92,0s-.6,0-.92,0a.82.82,0,0,1-.7-.31c-.14-.19-.28-.35-.42-.51a3.28,3.28,0,0,1-.38-.5c-.16-.19-.32-.37-.47-.56a4.07,4.07,0,0,1-.4-.59c-.23-.35-.45-.7-.66-1.06s-.41-.72-.59-1.1a9.62,9.62,0,0,1-.39-1,.16.16,0,0,0-.24-.11l-.07.07v.21c0,.39,0,.78,0,1.16v1.17c0,.46,0,.92-.06,1.36s0,.89,0,1.35v.11a.21.21,0,0,1-.24.24l-.27,0-.26,0a5.24,5.24,0,0,0-1,0q-.47,0-1,0h-.91a.48.48,0,0,1-.46-.31.8.8,0,0,1-.05-.38c0-.14,0-.28,0-.42,0-.33,0-.66,0-1v-1c0-.56,0-1.11,0-1.64s0-1.07,0-1.6,0-.8,0-1.22,0-.82,0-1.22Zm4.11-2.75h0v1.95c0,.17.07.22.21.18l.37,0,.36,0H212a1.86,1.86,0,0,0,1.18-.45,1.51,1.51,0,0,0,.62-.94,1.87,1.87,0,0,0,0-.4,2.22,2.22,0,0,1,0-.37,1.94,1.94,0,0,0-.66-1.67,1.43,1.43,0,0,0-1-.45,6.37,6.37,0,0,1-.75,0l-.78,0h-1.15c-.12,0-.17.07-.17.21q0,.49-.06,1C209.22,27.63,209.22,28,209.22,28.28Z"/><path class="cls-1" d="M228.11,22.4c.33,0,.65,0,1,0a4.7,4.7,0,0,1,1,.17,1.13,1.13,0,0,0,.35.09l.35.05a7,7,0,0,1,1.84.91l.47.29.47.33a5.47,5.47,0,0,1,1.22,1.08,6.32,6.32,0,0,1,.42.66c.3.44.55.85.76,1.22a3.64,3.64,0,0,1,.42.9c.09.31.18.62.28.94,0,.14.05.29.08.46a4,4,0,0,1,.09.48,1.62,1.62,0,0,1,.07.47,2.56,2.56,0,0,0,0,.47,8.6,8.6,0,0,1-.14,1.52,9.52,9.52,0,0,1-.39,1.44c-.14.4-.29.78-.45,1.17a5.37,5.37,0,0,1-.62,1.09,8.87,8.87,0,0,1-1.07,1.27,6.63,6.63,0,0,1-1.3,1,9.09,9.09,0,0,1-2.26,1.15l-.82.15-.82.16c-.21,0-.42,0-.64,0h-.61c-.28,0-.56,0-.85-.06a3.52,3.52,0,0,1-.82-.12,6.61,6.61,0,0,1-2.61-1,4.35,4.35,0,0,1-.72-.49c-.22-.18-.43-.37-.64-.56a10,10,0,0,1-1.25-1.35,4.17,4.17,0,0,1-.52-.84,4.94,4.94,0,0,1-.26-.57c-.09-.2-.17-.4-.27-.61-.07,0-.1-.11-.1-.24a1.58,1.58,0,0,1,0-.25,1.44,1.44,0,0,0-.05-.24,8.37,8.37,0,0,1-.35-1.78,6.62,6.62,0,0,1,0-1.18,11.86,11.86,0,0,1,.14-1.18c.12-.47.26-.92.42-1.36a12.26,12.26,0,0,1,.56-1.29l.34-.55.35-.56a5.4,5.4,0,0,1,1.43-1.39,8.73,8.73,0,0,1,1.5-1,1.56,1.56,0,0,1,.5-.25l.54-.14a1.56,1.56,0,0,1,.45-.13,3.68,3.68,0,0,1,.77-.21l.76-.14a2.49,2.49,0,0,1,.54,0A2.44,2.44,0,0,0,228.11,22.4Zm-.28,13.37a6.2,6.2,0,0,0,1-.09,6.8,6.8,0,0,0,1-.26,3.59,3.59,0,0,0,1.46-1,7.38,7.38,0,0,0,.5-.64c.15-.22.3-.46.44-.71a4.27,4.27,0,0,0,.42-2,3.88,3.88,0,0,0-.42-1.77,3.43,3.43,0,0,0-.94-1.46,6.75,6.75,0,0,1-.73-.53c-.33-.18-.66-.35-1-.5a4.92,4.92,0,0,0-1.07-.33,3.24,3.24,0,0,0-.76-.05l-.8.05-.21,0-.78.39a2.88,2.88,0,0,0-.72.52,4.31,4.31,0,0,0-1.63,2.47,3.32,3.32,0,0,0-.14,1.39,3.55,3.55,0,0,0,.09.47c0,.15.06.3.08.44a3.45,3.45,0,0,1,.11.4,1,1,0,0,0,.14.36c.07.12.13.25.19.38a1.5,1.5,0,0,0,.22.39,4.72,4.72,0,0,0,.3.5,1.52,1.52,0,0,0,.4.4,1.7,1.7,0,0,0,.42.35c.25.16.5.31.75.44a3.81,3.81,0,0,0,.78.29.87.87,0,0,0,.42.05Z"/></svg>